{
    "asset" : {
        "generator" : "Khronos glTF Blender I/O v1.7.33",
        "version" : "2.0"
    },
    "scene" : 0,
    "scenes" : [
        {
            "name" : "Scene",
            "nodes" : [
                0
            ]
        }
    ],
    "nodes" : [
        {
            "mesh" : 0,
            "name" : "Text"
        }
    ],
    "meshes" : [
        {
            "name" : "Text",
            "primitives" : [
                {
                    "attributes" : {
                        "POSITION" : 0,
                        "NORMAL" : 1,
                        "TEXCOORD_0" : 2
                    },
                    "indices" : 3
                }
            ]
        }
    ],
    "accessors" : [
        {
            "bufferView" : 0,
            "componentType" : 5126,
            "count" : 4739,
            "max" : [
                3.4509999752044678,
                0,
                0.009000000543892384
            ],
            "min" : [
                0.05000000074505806,
                -0.04533091560006142,
                -0.6910000443458557
            ],
            "type" : "VEC3"
        },
        {
            "bufferView" : 1,
            "componentType" : 5126,
            "count" : 4739,
            "type" : "VEC3"
        },
        {
            "bufferView" : 2,
            "componentType" : 5126,
            "count" : 4739,
            "type" : "VEC2"
        },
        {
            "bufferView" : 3,
            "componentType" : 5123,
            "count" : 6492,
            "type" : "SCALAR"
        }
    ],
    "bufferViews" : [
        {
            "buffer" : 0,
            "byteLength" : 56868,
            "byteOffset" : 0
        },
        {
            "buffer" : 0,
            "byteLength" : 56868,
            "byteOffset" : 56868
        },
        {
            "buffer" : 0,
            "byteLength" : 37912,
            "byteOffset" : 113736
        },
        {
            "buffer" : 0,
            "byteLength" : 12984,
            "byteOffset" : 151648
        }
    ],
    "buffers" : [
        {
            "byteLength" : 164632,
            "uri" : "data:application/octet-stream;base64,"
        }
    ]
}
