{
    "asset" : {
        "generator" : "Khronos glTF Blender I/O v1.7.33",
        "version" : "2.0"
    },
    "scene" : 0,
    "scenes" : [
        {
            "name" : "Scene",
            "nodes" : [
                0,
                1,
                2,
                3,
                4,
                5,
                6
            ]
        }
    ],
    "nodes" : [
        {
            "mesh" : 0,
            "name" : "sole",
            "scale" : [
                0.19357022643089294,
                0.19357022643089294,
                0.46175453066825867
            ],
            "translation" : [
                0.15428686141967773,
                0.16016215085983276,
                0.03610952943563461
            ]
        },
        {
            "mesh" : 1,
            "name" : "body",
            "scale" : [
                0.18519079685211182,
                0.18519079685211182,
                0.45332491397857666
            ],
            "translation" : [
                0.147471621632576,
                0.12428683042526245,
                0.030785150825977325
            ]
        },
        {
            "mesh" : 2,
            "name" : "tongue",
            "rotation" : [
                0.04308660328388214,
                -0.017486533150076866,
                0.009050358086824417,
                0.9988774061203003
            ],
            "scale" : [
                0.14942780137062073,
                0.1982530653476715,
                0.36255091428756714
            ],
            "translation" : [
                0.14883612096309662,
                0.27901434898376465,
                0.22832149267196655
            ]
        },
        {
            "mesh" : 3,
            "name" : "rubberleft",
            "rotation" : [
                0.07789550721645355,
                0.07789550721645355,
                -0.7028031349182129,
                0.7028031945228577
            ],
            "scale" : [
                0.10051626712083817,
                0.10051626712083817,
                0.10051626712083817
            ],
            "translation" : [
                0.259976327419281,
                0.3032582402229309,
                -0.01751946657896042
            ]
        },
        {
            "mesh" : 4,
            "name" : "rubberright",
            "rotation" : [
                -0.13647057116031647,
                -0.13647055625915527,
                0.6938124895095825,
                0.6938125491142273
            ],
            "scale" : [
                -0.10051626712083817,
                0.10051625221967697,
                0.10051625221967697
            ],
            "translation" : [
                0.06662924587726593,
                0.308982789516449,
                -0.0188978910446167
            ]
        },
        {
            "mesh" : 5,
            "name" : "band",
            "rotation" : [
                0.04308660328388214,
                -0.017486533150076866,
                0.009050358086824417,
                0.9988774061203003
            ],
            "scale" : [
                0.14942780137062073,
                0.1982530653476715,
                0.36255091428756714
            ],
            "translation" : [
                0.1663520187139511,
                0.303406298160553,
                0.12144368141889572
            ]
        },
        {
            "mesh" : 6,
            "name" : "backfigure",
            "scale" : [
                0.18519079685211182,
                0.18519079685211182,
                0.45332491397857666
            ],
            "translation" : [
                0.2027507722377777,
                0.28020334243774414,
                -0.4158981144428253
            ]
        }
    ],
    "materials" : [
        {
            "doubleSided" : true,
            "name" : "tabanstencil",
            "pbrMetallicRoughness" : {
                "baseColorTexture" : {
                    "index" : 0
                },
                "metallicFactor" : 0,
                "roughnessFactor" : 0.5
            }
        },
        {
            "doubleSided" : true,
            "name" : "base",
            "pbrMetallicRoughness" : {
                "baseColorFactor" : [
                    0,
                    0,
                    0,
                    1
                ],
                "metallicFactor" : 0,
                "roughnessFactor" : 0.40909090638160706
            }
        }
    ],
    "meshes" : [
        {
            "name" : "Plane.002",
            "primitives" : [
                {
                    "attributes" : {
                        "POSITION" : 0,
                        "NORMAL" : 1,
                        "TEXCOORD_0" : 2
                    },
                    "indices" : 3,
                    "material" : 0
                }
            ]
        },
        {
            "name" : "Plane.003",
            "primitives" : [
                {
                    "attributes" : {
                        "POSITION" : 4,
                        "NORMAL" : 5,
                        "TEXCOORD_0" : 6
                    },
                    "indices" : 7,
                    "material" : 1
                }
            ]
        },
        {
            "name" : "Plane.006",
            "primitives" : [
                {
                    "attributes" : {
                        "POSITION" : 8,
                        "NORMAL" : 9,
                        "TEXCOORD_0" : 10
                    },
                    "indices" : 11,
                    "material" : 1
                }
            ]
        },
        {
            "name" : "Plane.007",
            "primitives" : [
                {
                    "attributes" : {
                        "POSITION" : 12,
                        "NORMAL" : 13,
                        "TEXCOORD_0" : 14
                    },
                    "indices" : 15,
                    "material" : 1
                }
            ]
        },
        {
            "name" : "Plane.008",
            "primitives" : [
                {
                    "attributes" : {
                        "POSITION" : 16,
                        "NORMAL" : 17,
                        "TEXCOORD_0" : 18
                    },
                    "indices" : 15,
                    "material" : 1
                }
            ]
        },
        {
            "name" : "Plane.011",
            "primitives" : [
                {
                    "attributes" : {
                        "POSITION" : 19,
                        "NORMAL" : 20,
                        "TEXCOORD_0" : 21
                    },
                    "indices" : 22,
                    "material" : 1
                }
            ]
        },
        {
            "name" : "Plane.012",
            "primitives" : [
                {
                    "attributes" : {
                        "POSITION" : 23,
                        "NORMAL" : 24,
                        "TEXCOORD_0" : 25
                    },
                    "indices" : 26,
                    "material" : 1
                }
            ]
        }
    ],
    "textures" : [
        {
            "sampler" : 0,
            "source" : 0
        }
    ],
    "images" : [
        {
            "bufferView" : 4,
            "mimeType" : "image/png",
            "name" : "Material"
        }
    ],
    "accessors" : [
        {
            "bufferView" : 0,
            "componentType" : 5126,
            "count" : 183,
            "max" : [
                0.8951039910316467,
                0.3198081851005554,
                1.024389386177063
            ],
            "min" : [
                -0.9945611357688904,
                -0.2903599739074707,
                -1.1500039100646973
            ],
            "type" : "VEC3"
        },
        {
            "bufferView" : 1,
            "componentType" : 5126,
            "count" : 183,
            "type" : "VEC3"
        },
        {
            "bufferView" : 2,
            "componentType" : 5126,
            "count" : 183,
            "type" : "VEC2"
        },
        {
            "bufferView" : 3,
            "componentType" : 5123,
            "count" : 624,
            "type" : "SCALAR"
        },
        {
            "bufferView" : 5,
            "componentType" : 5126,
            "count" : 664,
            "max" : [
                0.8825346827507019,
                1.83028244972229,
                1.047789454460144
            ],
            "min" : [
                -0.9456080198287964,
                0.09904655814170837,
                -1.1289715766906738
            ],
            "type" : "VEC3"
        },
        {
            "bufferView" : 6,
            "componentType" : 5126,
            "count" : 664,
            "type" : "VEC3"
        },
        {
            "bufferView" : 7,
            "componentType" : 5126,
            "count" : 664,
            "type" : "VEC2"
        },
        {
            "bufferView" : 8,
            "componentType" : 5123,
            "count" : 2220,
            "type" : "SCALAR"
        },
        {
            "bufferView" : 9,
            "componentType" : 5126,
            "count" : 56,
            "max" : [
                0.8516191244125366,
                0.7079419493675232,
                0.5905272364616394
            ],
            "min" : [
                -0.8939933180809021,
                -0.36971694231033325,
                -0.7976709008216858
            ],
            "type" : "VEC3"
        },
        {
            "bufferView" : 10,
            "componentType" : 5126,
            "count" : 56,
            "type" : "VEC3"
        },
        {
            "bufferView" : 11,
            "componentType" : 5126,
            "count" : 56,
            "type" : "VEC2"
        },
        {
            "bufferView" : 12,
            "componentType" : 5123,
            "count" : 252,
            "type" : "SCALAR"
        },
        {
            "bufferView" : 13,
            "componentType" : 5126,
            "count" : 9,
            "max" : [
                0.3645363748073578,
                0.2600874900817871,
                0.8378884792327881
            ],
            "min" : [
                -0.6717514991760254,
                -0.1997891664505005,
                -1.009023904800415
            ],
            "type" : "VEC3"
        },
        {
            "bufferView" : 14,
            "componentType" : 5126,
            "count" : 9,
            "type" : "VEC3"
        },
        {
            "bufferView" : 15,
            "componentType" : 5126,
            "count" : 9,
            "type" : "VEC2"
        },
        {
            "bufferView" : 16,
            "componentType" : 5123,
            "count" : 24,
            "type" : "SCALAR"
        },
        {
            "bufferView" : 17,
            "componentType" : 5126,
            "count" : 9,
            "max" : [
                0.3645363748073578,
                0.2600874900817871,
                0.7895804643630981
            ],
            "min" : [
                -0.6717514991760254,
                -0.1997891664505005,
                -1.009023904800415
            ],
            "type" : "VEC3"
        },
        {
            "bufferView" : 18,
            "componentType" : 5126,
            "count" : 9,
            "type" : "VEC3"
        },
        {
            "bufferView" : 19,
            "componentType" : 5126,
            "count" : 9,
            "type" : "VEC2"
        },
        {
            "bufferView" : 20,
            "componentType" : 5126,
            "count" : 53,
            "max" : [
                0.8026906847953796,
                0.32038018107414246,
                0.24226230382919312
            ],
            "min" : [
                -1.1170951128005981,
                -0.5034669637680054,
                -0.3323439657688141
            ],
            "type" : "VEC3"
        },
        {
            "bufferView" : 21,
            "componentType" : 5126,
            "count" : 53,
            "type" : "VEC3"
        },
        {
            "bufferView" : 22,
            "componentType" : 5126,
            "count" : 53,
            "type" : "VEC2"
        },
        {
            "bufferView" : 23,
            "componentType" : 5123,
            "count" : 216,
            "type" : "SCALAR"
        },
        {
            "bufferView" : 24,
            "componentType" : 5126,
            "count" : 30,
            "max" : [
                0.6192680597305298,
                0.7189960479736328,
                0.23295140266418457
            ],
            "min" : [
                -0.7188942432403564,
                -0.4231707453727722,
                -0.16326791048049927
            ],
            "type" : "VEC3"
        },
        {
            "bufferView" : 25,
            "componentType" : 5126,
            "count" : 30,
            "type" : "VEC3"
        },
        {
            "bufferView" : 26,
            "componentType" : 5126,
            "count" : 30,
            "type" : "VEC2"
        },
        {
            "bufferView" : 27,
            "componentType" : 5123,
            "count" : 120,
            "type" : "SCALAR"
        }
    ],
    "bufferViews" : [
        {
            "buffer" : 0,
            "byteLength" : 2196,
            "byteOffset" : 0
        },
        {
            "buffer" : 0,
            "byteLength" : 2196,
            "byteOffset" : 2196
        },
        {
            "buffer" : 0,
            "byteLength" : 1464,
            "byteOffset" : 4392
        },
        {
            "buffer" : 0,
            "byteLength" : 1248,
            "byteOffset" : 5856
        },
        {
            "buffer" : 0,
            "byteLength" : 513388,
            "byteOffset" : 7104
        },
        {
            "buffer" : 0,
            "byteLength" : 7968,
            "byteOffset" : 520492
        },
        {
            "buffer" : 0,
            "byteLength" : 7968,
            "byteOffset" : 528460
        },
        {
            "buffer" : 0,
            "byteLength" : 5312,
            "byteOffset" : 536428
        },
        {
            "buffer" : 0,
            "byteLength" : 4440,
            "byteOffset" : 541740
        },
        {
            "buffer" : 0,
            "byteLength" : 672,
            "byteOffset" : 546180
        },
        {
            "buffer" : 0,
            "byteLength" : 672,
            "byteOffset" : 546852
        },
        {
            "buffer" : 0,
            "byteLength" : 448,
            "byteOffset" : 547524
        },
        {
            "buffer" : 0,
            "byteLength" : 504,
            "byteOffset" : 547972
        },
        {
            "buffer" : 0,
            "byteLength" : 108,
            "byteOffset" : 548476
        },
        {
            "buffer" : 0,
            "byteLength" : 108,
            "byteOffset" : 548584
        },
        {
            "buffer" : 0,
            "byteLength" : 72,
            "byteOffset" : 548692
        },
        {
            "buffer" : 0,
            "byteLength" : 48,
            "byteOffset" : 548764
        },
        {
            "buffer" : 0,
            "byteLength" : 108,
            "byteOffset" : 548812
        },
        {
            "buffer" : 0,
            "byteLength" : 108,
            "byteOffset" : 548920
        },
        {
            "buffer" : 0,
            "byteLength" : 72,
            "byteOffset" : 549028
        },
        {
            "buffer" : 0,
            "byteLength" : 636,
            "byteOffset" : 549100
        },
        {
            "buffer" : 0,
            "byteLength" : 636,
            "byteOffset" : 549736
        },
        {
            "buffer" : 0,
            "byteLength" : 424,
            "byteOffset" : 550372
        },
        {
            "buffer" : 0,
            "byteLength" : 432,
            "byteOffset" : 550796
        },
        {
            "buffer" : 0,
            "byteLength" : 360,
            "byteOffset" : 551228
        },
        {
            "buffer" : 0,
            "byteLength" : 360,
            "byteOffset" : 551588
        },
        {
            "buffer" : 0,
            "byteLength" : 240,
            "byteOffset" : 551948
        },
        {
            "buffer" : 0,
            "byteLength" : 240,
            "byteOffset" : 552188
        }
    ],
    "samplers" : [
        {
            "magFilter" : 9729,
            "minFilter" : 9987
        }
    ],
    "buffers" : [
        {
            "byteLength" : 552428,
            "uri" : "data:application/octet-stream;base64,"
        }
    ]
}
